<svg xmlns="http://www.w3.org/2000/svg" viewBox="0 0 475.53 116.98"><title>cardMemoLogo</title><g id="Слой_5" data-name="Слой 5"><path d="M228.34,106.65c-46.45-2.92-49.6-68.56.08-73.64C274.87,35.94,278,101.57,228.34,106.65Zm0-69.72c-38.08,2.12-47.3,59.43.08,65.8C266.5,100.62,275.72,43.31,228.34,36.93Z" transform="translate(0.33 -11.38)"/><path d="M246.27,16c-6.12,4.33-49.92,64.76-24.23,44.88,1.8,1.75-12.45,18-13.67,20.82,25.25-19.78,5.48,3.11.42,12.47-2.63,3.38-2.4,3.38.63.9,26.06-24-.18,15.84-3.24,25.16,19-15.9,33.06-36.19,38-47.74-.11,0-3.37,2.59-7,5.28-13.74,12.91,11.67-22.09,8.24-24.91C217.84,70.08,245.58,26.14,246.27,16Z" transform="translate(0.33 -11.38)"/><path d="M.83,82.11C-9.67,26.24,55.76,56.59,21.74,64.48c-16.27-16.29-11.31,30.42,0,10.06C56.13,87,1.14,98.32.83,82.11Z" transform="translate(0.33 -11.38)"/><path d="M62.62,82.91c-11.57-3-14.53,9.67-24,6.37,3.6-6.83,7.66-44.85,17.26-38.2,13.92-6.88,14.54,30.45,19.3,38.2C71.53,88.79,62.29,92.16,62.62,82.91ZM60.2,73.53l-3.36-13-3.34,13Z" transform="translate(0.33 -11.38)"/><path d="M98.27,76.88h-4.6v12.4h-11V51.08c16.23-2.07,46.7-.81,26.82,25.53l6.88,12.67C100.79,92.23,102,82.88,98.27,76.88Zm-4.6-9.72c15.91,2.28,12.54-7.84,0-5.69Z" transform="translate(0.33 -11.38)"/><path d="M157.47,60.66c4.38,41.59-15.18,25.58-32.44,28.62V51.08C132.06,53.08,157,44.53,157.47,60.66Zm-10.79,3.92c.56-4.07-8.46-2.7-10.61-2.95V78.72C148.68,80.8,146.51,76.14,146.68,64.58Z" transform="translate(0.33 -11.38)"/><path d="M264.45,127.89c-111.19-1.89-77.49,21-82-108.3,5.19-14.3,28.43-5,55.8-7.48,23.79.54,34.47-3.61,36.36,10.69C273,92.82,280.81,129.18,264.45,127.89ZM192.31,17.11c-10.57-6-3.09,96.06-5.19,100.54,0,9.23,22.59,3.95,47.25,5.24,24.16-1.15,33.2,3.71,35.27-5.41C265.32-12.14,294.94,21.73,192.31,17.11Z" transform="translate(0.33 -11.38)"/><path d="M331.67,50.6V89.42h-10.8V66.27l-7.94,15.38L305,66.27V89.42H294.18V50.6c17.44-3,14.66,7.11,18.75,12.57C318.47,45.39,325.23,51.56,331.67,50.6Z" transform="translate(0.33 -11.38)"/><path d="M344.7,50.6h32.81v10H356.57v4.76h13.65v9.2H356.57v4.76h20.94v10H344.7Z" transform="translate(0.33 -11.38)"/><path d="M426.2,50.6V89.42H415.4V66.27l-7.94,15.38-7.94-15.38V89.42H388.71V50.6c17.44-3,14.66,7.11,18.75,12.57C413,45.39,419.76,51.56,426.2,50.6Z" transform="translate(0.33 -11.38)"/><path d="M438.45,82.13c-4.85-35.74,9.66-37.25,34-28C486.79,102.86,439.89,93.26,438.45,82.13Zm20.8-3.47c5.68-2.82,2.55-28-9.19-14.37C450.34,73.05,446.83,79.75,459.25,78.66Z" transform="translate(0.33 -11.38)"/></g></svg>