<svg xmlns="http://www.w3.org/2000/svg" viewBox="0 0 475.2 84.44"><title>carddsStone</title><g id="Слой_5"><path d="M241.53,102.7h-.08c-22.37-1.42-32.07-17.27-31.77-32.35C210,54.83,221,38.88,241.52,38.41h.15c22.37,1.41,32.07,17.26,31.77,32.35-.32,15.51-11.35,31.46-31.84,31.93Zm0-60.87c-18.3.45-28.15,14.71-28.43,28.59-.27,13.43,8.43,27.56,28.49,28.86,18.3-.45,28.15-14.71,28.43-28.58C270.29,57.26,261.59,43.13,241.53,41.83Z" transform="translate(0 -26.94)"/><path d="M241.58,98.23h-.08c-18.15-.57-26.61-14.47-26.79-27.14s8.11-27.09,26.75-28.2h.15c18.16.57,26.62,14.47,26.8,27.14s-8.11,27.09-26.75,28.21Zm0-51.93C225.24,47.32,218,59.83,218.12,71s7.56,23.24,23.41,23.77c16.35-1,23.63-13.53,23.47-24.74S257.44,46.84,241.58,46.3Z" transform="translate(0 -26.94)"/><path d="M256.05,26.94c-5,3.52-40.44,52.46-19.62,36.36,1.46,1.42-10.09,14.56-11.08,16.87,20.46-16,4.44,2.52.34,10.1-2.13,2.74-1.95,2.74.51.73,21.12-19.44-.15,12.83-2.62,20.38C239,98.5,250.36,82.07,254.34,72.7c-.09,0-2.73,2.11-5.7,4.28-11.13,10.46,9.46-17.89,6.67-20.18C233,70.75,255.49,35.16,256.05,26.94Z" transform="translate(0 -26.94)"/><path d="M1.11,79.39C-9,40.64,53.84,61.7,21.19,67.17c-15.63-11.3-10.86,21.09,0,7C54.2,82.78,1.41,90.63,1.11,79.39Z" transform="translate(0 -26.94)"/><path d="M60.43,80c-11.11-2-14,6.7-23.08,4.41,3.46-4.73,7.36-31.1,16.58-26.49C67.28,53.1,67.88,79,72.45,84.36,69,84,60.12,86.36,60.43,80Zm-2.32-6.51-3.23-9-3.21,9Z" transform="translate(0 -26.94)"/><path d="M94.65,75.77H90.24v8.59H79.64V57.87c15.58-1.44,44.83-.56,25.75,17.71l6.6,8.78C97.07,86.41,98.21,79.92,94.65,75.77ZM90.24,69c15.27,1.57,12-5.44,0-4Z" transform="translate(0 -26.94)"/><path d="M151.49,64.52c4.2,28.84-14.58,17.74-31.14,19.84V57.87C127.09,59.26,151.08,53.33,151.49,64.52Zm-10.37,2.72c.54-2.83-8.12-1.88-10.17-2V77C143.05,78.48,141,75.25,141.12,67.24Z" transform="translate(0 -26.94)"/><path d="M161,79.35c-1.1-1,9.57-3.78,10.36-4.33.51,8.51,19.25-1.84,3.51-.7-8.09-.19-9.54,1.27-13.52-4.47C150.8,47.24,216,59.56,181.79,67.21c2.17-4-13.17-5.44-9.84.26,6,2.2,16.52-2.74,19.85,4.91C200.6,89.61,160.67,87.07,161,79.35Z" transform="translate(0 -26.94)"/><path d="M285.37,79.22c-1.1-1,9.57-3.78,10.36-4.32.51,8.5,19.25-1.85,3.51-.7-8.09-.2-9.54,1.26-13.52-4.48-10.56-22.61,54.63-10.28,20.42-2.63,2.18-4-13.17-5.45-9.83.26,5.95,2.19,16.52-2.75,19.85,4.91C325,89.48,285,86.94,285.37,79.22Z" transform="translate(0 -26.94)"/><path d="M333.16,65.18h-9.69V57.74h30v7.44h-9.69V84.24h-10.6Z" transform="translate(0 -26.94)"/><path d="M361.11,79.26c-5.25-27.29,14.73-24.85,30.71-18.5C402.64,95.36,361.53,85.6,361.11,79.26Zm18.57-2.37c5.74-4.7,2.06-15.78-7.59-11.24C369.47,73.51,371.18,78.42,379.68,76.89Z" transform="translate(0 -26.94)"/><path d="M434.31,57.74v26.5c-16.24,3-15.86-9.2-21.48-15.11V84.24h-9.66V57.74c16.22-3,15.89,9.37,21.49,15.34V57.74Z" transform="translate(0 -26.94)"/><path d="M445.92,57.74H475.2V64.6H456.52v3.25h12.17v6.28H456.52v3.25H475.2v6.86H445.92Z" transform="translate(0 -26.94)"/></g></svg>