<?xml version="1.0" standalone="no"?>
<!DOCTYPE svg PUBLIC "-//W3C//DTD SVG 20010904//EN"
 "http://www.w3.org/TR/2001/REC-SVG-20010904/DTD/svg10.dtd">
<svg version="1.0" xmlns="http://www.w3.org/2000/svg"
 width="1066.000000pt" height="300.000000pt" viewBox="0 0 1066.000000 300.000000"
 preserveAspectRatio="xMidYMid meet">

<g transform="translate(0.000000,300.000000) scale(0.100000,-0.100000)"
fill="#000000" stroke="none">
<path d="M310 2840 c-39 -13 -68 -33 -102 -68 -84 -88 -79 -5 -76 -1293 l3
-1135 30 -60 c33 -65 95 -115 165 -134 25 -7 1667 -9 5026 -8 l4989 3 41 22
c22 12 57 40 77 62 72 80 67 -12 67 1270 l0 1156 -24 51 c-29 63 -95 120 -160
139 -43 13 -663 15 -5015 15 -4844 -1 -4967 -1 -5021 -20z m5906 -176 c15 -11
37 -33 48 -48 21 -27 21 -34 24 -1099 2 -1006 1 -1074 -15 -1106 -10 -19 -31
-44 -46 -55 -28 -21 -34 -21 -896 -21 l-868 0 -37 29 c-70 53 -66 -17 -66
1160 0 863 2 1067 13 1078 7 7 16 21 20 31 4 9 15 20 24 24 10 4 24 13 31 20
11 11 172 13 877 11 854 -3 864 -3 891 -24z m-2941 -374 c82 -26 91 -32 99
-68 11 -49 25 -322 19 -377 l-6 -55 -152 0 -152 0 -6 78 c-11 130 -3 122 -123
124 -57 0 -110 1 -116 2 -7 1 -19 -12 -26 -28 -12 -23 -12 -50 -3 -148 5 -67
12 -123 15 -125 2 -2 80 -9 173 -14 92 -5 204 -13 248 -18 44 -6 92 -10 106
-10 l26 -1 13 -238 c10 -189 10 -279 1 -442 -7 -112 -13 -205 -14 -206 -1 -1
-39 -20 -84 -43 l-83 -41 -195 0 -195 0 -70 35 c-39 19 -70 36 -70 38 0 1 -7
40 -15 87 -15 88 -20 309 -9 419 l7 61 35 0 c20 0 75 -5 123 -11 l87 -11 4
-149 c2 -82 6 -150 9 -153 2 -2 43 -8 90 -12 l86 -6 6 62 c4 35 7 134 7 220
l0 158 -127 6 c-106 5 -285 34 -300 50 -2 2 -8 106 -14 233 -8 184 -7 259 5
382 8 84 17 156 21 159 4 4 48 22 98 39 91 32 93 33 252 29 132 -3 172 -7 230
-26z m6949 -2 c59 -21 71 -29 79 -54 13 -43 28 -320 21 -386 l-7 -58 -142 0
-142 0 -6 96 c-4 54 -8 98 -9 100 -2 1 -52 4 -113 5 l-109 3 -13 -32 c-10 -25
-11 -57 -3 -149 6 -64 12 -119 15 -121 2 -2 70 -8 152 -12 126 -7 355 -28 359
-33 1 -1 7 -96 14 -212 12 -196 9 -472 -6 -616 l-6 -56 -78 -42 -77 -41 -183
0 -182 0 -63 35 -63 36 -11 62 c-20 108 -24 189 -16 350 l7 157 39 0 c21 0 72
-5 113 -11 63 -9 75 -15 80 -33 3 -11 6 -80 6 -152 l0 -132 79 -7 c44 -4 84
-4 90 -1 6 4 10 91 11 220 l1 213 -83 6 c-46 4 -103 7 -128 7 -25 0 -78 10
-117 21 -60 18 -73 26 -73 43 0 12 -5 116 -10 231 -7 161 -6 246 5 364 8 84
17 156 20 160 4 3 45 20 93 38 86 33 88 33 237 29 127 -3 160 -7 219 -28z
m-8770 -689 l-7 -712 29 7 c16 3 87 9 158 13 l129 6 -7 -103 c-3 -57 -9 -106
-12 -109 -3 -3 -148 -6 -322 -6 l-317 0 -14 720 c-13 702 -11 811 16 882 4 10
43 13 180 13 l174 0 -7 -711z m899 705 l76 -7 15 -61 c15 -60 62 -536 111
-1136 13 -168 27 -329 31 -358 l5 -52 -101 0 c-56 0 -109 4 -119 10 -17 8 -19
33 -26 250 l-7 240 -52 0 c-28 0 -75 -3 -105 -7 l-54 -6 7 -136 c3 -75 9 -182
12 -238 l7 -103 -171 0 c-94 0 -173 3 -175 8 -2 4 2 227 9 496 11 422 17 529
44 780 18 160 34 293 36 295 6 7 232 28 310 30 39 0 105 -2 147 -5z m4703 -25
l74 -31 0 -251 c0 -139 -4 -257 -8 -264 -14 -23 -131 -35 -202 -21 l-65 13 -8
125 c-10 151 -19 166 -90 156 l-45 -7 -15 -62 c-14 -54 -14 -108 -7 -397 5
-184 14 -409 20 -500 5 -91 10 -175 10 -187 0 -22 4 -23 69 -23 l68 0 8 121
c4 66 4 167 0 225 l-7 104 138 -6 c77 -4 141 -9 144 -11 6 -5 1 -309 -6 -434
l-6 -96 -57 -26 c-53 -25 -67 -26 -286 -31 l-231 -6 -36 37 c-20 21 -52 70
-71 108 l-34 70 -9 290 c-5 160 -8 380 -7 490 2 184 18 502 28 550 3 16 25 28
92 50 99 33 163 41 341 43 117 2 127 0 198 -29z m657 25 l75 -7 11 -41 c14
-51 60 -543 100 -1066 17 -217 33 -419 37 -448 l5 -52 -98 0 c-54 0 -103 4
-110 8 -8 5 -14 73 -18 217 -3 116 -8 225 -11 243 -5 30 -7 32 -47 32 -23 0
-66 -3 -96 -7 l-53 -6 6 -131 c3 -72 9 -179 12 -238 l7 -108 -162 0 -161 0 0
73 c0 39 5 259 10 487 9 329 17 477 41 715 16 164 32 301 34 303 7 7 212 29
281 31 34 0 95 -2 137 -5z m-6695 -135 c-3 -71 -8 -132 -10 -135 -3 -2 -69 0
-148 6 -78 6 -144 9 -146 7 -5 -5 11 -376 17 -382 3 -2 61 2 129 10 68 8 125
13 126 12 1 -1 5 -55 8 -119 l7 -118 -150 0 c-82 0 -152 -3 -154 -7 -4 -7 13
-430 26 -670 l5 -83 -112 0 c-61 0 -148 3 -193 7 l-83 6 0 746 c0 410 3 770 6
799 l7 52 335 0 335 0 -5 -131z m2677 -184 l7 -315 110 0 109 0 -6 83 c-10
148 -25 438 -25 493 l0 54 174 0 175 0 5 -52 c6 -62 23 -682 33 -1189 l6 -356
-69 -6 c-94 -9 -264 -9 -264 1 0 4 -7 156 -15 337 -8 182 -15 346 -15 367 l0
36 -111 26 c-62 15 -114 25 -116 23 -2 -3 8 -179 21 -393 14 -214 23 -390 21
-392 -2 -2 -53 -1 -114 3 l-111 8 -2 788 c-2 519 0 790 7 793 6 3 47 5 91 5
l82 1 7 -315z m4816 300 c46 -9 105 -23 131 -31 45 -15 46 -16 62 -77 23 -92
28 -252 11 -375 -15 -110 -53 -227 -83 -250 -14 -11 -12 -16 20 -50 65 -66 70
-110 62 -493 l-7 -329 -51 0 c-44 0 -204 25 -212 33 -2 2 -8 142 -14 312 -13
346 -12 343 -83 375 l-42 19 -3 -357 -2 -357 -139 0 c-77 0 -141 2 -144 5 -8
8 -9 611 -2 975 3 187 2 399 -3 470 -5 72 -7 133 -5 138 8 14 416 8 504 -8z
m786 -10 c116 -37 131 -50 191 -157 l52 -95 0 -449 c0 -273 -4 -463 -10 -484
-6 -19 -15 -73 -20 -119 -8 -75 -15 -93 -61 -171 -44 -75 -57 -89 -83 -94 -17
-3 -146 -8 -287 -12 l-256 -7 4 619 c2 340 6 701 9 801 l6 182 122 4 c66 1
151 4 188 5 48 1 89 -5 145 -23z"/>
<path d="M4568 2471 l-33 -29 -2 -459 c-1 -416 0 -451 13 -383 38 209 107 343
250 486 119 120 268 192 445 215 83 12 212 9 225 -4 4 -4 1 -14 -7 -22 -10
-11 -45 -16 -119 -19 -187 -8 -315 -51 -447 -149 -109 -81 -232 -261 -276
-402 -61 -196 -41 -432 53 -620 67 -134 128 -200 295 -318 26 -19 34 -47 13
-47 -7 0 -38 17 -69 38 -186 124 -305 298 -354 517 -12 54 -13 20 -14 -334
l-1 -393 34 -34 34 -34 726 0 c541 0 732 3 751 12 57 26 55 -15 55 1016 l0
949 -21 19 c-19 17 -41 19 -243 22 l-222 3 -12 -63 c-6 -35 -16 -101 -22 -148
-25 -194 -82 -528 -96 -565 -5 -11 17 -5 72 21 95 44 114 50 114 36 0 -10
-141 -250 -261 -444 -27 -43 -47 -78 -45 -78 2 0 43 18 91 40 48 22 89 40 91
40 21 0 -38 -84 -146 -207 -19 -22 -51 -59 -70 -83 -100 -124 -116 -145 -289
-368 -57 -73 -105 -132 -107 -129 -4 4 57 194 87 269 10 25 25 71 33 101 8 31
26 88 41 128 14 39 24 74 21 76 -2 3 -47 -16 -100 -41 -52 -25 -99 -46 -105
-46 -6 0 39 77 99 170 60 94 108 170 106 170 -1 0 -36 -11 -76 -25 -40 -14
-75 -23 -77 -21 -2 2 45 75 105 162 60 88 108 160 107 161 0 2 -25 -7 -54 -18
-30 -11 -57 -19 -62 -17 -4 2 32 66 80 143 168 270 291 472 291 479 0 4 -5 4
-12 0 -7 -4 -8 -3 -4 5 4 6 12 9 17 6 8 -5 45 48 142 203 l27 42 -520 0 -520
0 -32 -29z m1194 -300 c109 -74 205 -187 271 -317 47 -93 64 -157 76 -284 30
-311 -70 -571 -291 -759 -186 -159 -399 -217 -636 -175 -18 4 -31 11 -29 18 3
8 40 10 123 8 154 -5 238 13 370 78 87 42 115 62 191 137 99 99 155 189 199
318 23 67 28 103 32 216 5 150 -5 234 -43 341 -46 131 -143 266 -247 342 -100
74 -127 98 -121 113 9 22 28 15 105 -36z m-394 7 c-3 -8 -39 -18 -89 -24 -116
-16 -162 -30 -249 -75 -108 -57 -220 -170 -274 -278 -60 -119 -71 -175 -70
-346 0 -146 2 -167 27 -240 46 -140 124 -248 242 -335 31 -23 54 -44 52 -47
-11 -10 -75 33 -135 91 -263 252 -293 696 -68 993 62 81 133 142 226 191 89
47 128 60 212 71 99 13 130 13 126 -1z m302 -32 c0 -6 -5 -4 -10 4 -9 13 -11
13 -20 0 -11 -17 -13 -10 -4 14 5 13 9 14 20 5 8 -6 14 -17 14 -23z m149 -182
c72 -78 142 -215 165 -321 23 -104 21 -278 -4 -378 -67 -266 -270 -465 -529
-520 -82 -17 -188 -20 -211 -5 -10 7 7 10 58 10 171 0 338 63 457 172 117 107
179 220 209 377 48 251 -13 486 -171 661 -29 32 -53 61 -53 64 0 18 25 -1 79
-60z m71 -414 c0 -21 -24 -28 -35 -10 -8 14 3 30 21 30 8 0 14 -9 14 -20z
m-1078 -92 c-7 -7 -12 -8 -12 -2 0 14 12 26 19 19 2 -3 -1 -11 -7 -17z"/>
<path d="M2122 1863 c-15 -171 -16 -370 -1 -412 12 -35 19 -36 141 -24 l68 6
-5 166 c-3 91 -8 207 -11 258 l-6 92 -71 21 c-40 12 -79 23 -88 26 -13 3 -17
-17 -27 -133z"/>
<path d="M7507 1909 c-9 -115 -9 -436 -1 -466 7 -25 25 -28 130 -17 l59 6 -3
87 c-1 47 -5 164 -8 258 l-6 173 -67 20 c-36 11 -73 23 -82 25 -14 5 -17 -9
-22 -86z"/>
<path d="M8154 2016 c-3 -14 -2 -35 2 -48 4 -13 10 -84 13 -158 l6 -135 100 4
c56 2 111 9 126 17 23 12 27 20 33 86 7 91 -12 180 -46 215 -30 29 -81 42
-165 43 -58 0 -63 -2 -69 -24z"/>
<path d="M9174 1478 c-5 -288 -9 -548 -9 -578 l0 -55 61 -3 c91 -4 88 -13 102
338 17 410 16 616 -4 716 l-16 82 -56 11 c-30 6 -59 11 -63 11 -3 0 -11 -235
-15 -522z"/>
</g>
</svg>
