<svg xmlns="http://www.w3.org/2000/svg" xmlns:xlink="http://www.w3.org/1999/xlink" viewBox="0 0 450.3 98.88"><defs><style>.cls-1{fill:url(#Безымянный_градиент_25);}.cls-2{fill:url(#Безымянный_градиент_14);}.cls-3{fill:url(#Безымянный_градиент_14-2);}.cls-4{fill:url(#Безымянный_градиент_14-3);}.cls-5{fill:url(#Безымянный_градиент_14-4);}.cls-6{fill:url(#Безымянный_градиент_14-5);}.cls-7{fill:url(#Безымянный_градиент_14-6);}.cls-8{fill:url(#Безымянный_градиент_14-7);}.cls-9{fill:url(#Безымянный_градиент_14-8);}.cls-10{fill:url(#Безымянный_градиент_14-9);}.cls-11{fill:url(#Безымянный_градиент_14-10);}</style><linearGradient id="Безымянный_градиент_25" x1="202.47" y1="57.53" x2="238.99" y2="65.61" gradientUnits="userSpaceOnUse"><stop offset="0" stop-color="#fff"/><stop offset="0.11" stop-color="#fafafa"/><stop offset="0.23" stop-color="#ededed"/><stop offset="0.36" stop-color="#d6d6d6"/><stop offset="0.5" stop-color="#b6b6b6"/><stop offset="0.64" stop-color="#8d8d8d"/><stop offset="0.78" stop-color="#5b5b5b"/><stop offset="0.93" stop-color="#212121"/><stop offset="1"/></linearGradient><linearGradient id="Безымянный_градиент_14" x1="26.07" y1="24.51" x2="25.56" y2="69.19" xlink:href="#Безымянный_градиент_25"/><linearGradient id="Безымянный_градиент_14-2" x1="59.62" y1="24.89" x2="59.11" y2="69.57" xlink:href="#Безымянный_градиент_25"/><linearGradient id="Безымянный_градиент_14-3" x1="94.7" y1="25.29" x2="94.19" y2="69.97" xlink:href="#Безымянный_градиент_25"/><linearGradient id="Безымянный_градиент_14-4" x1="129.41" y1="25.69" x2="128.9" y2="70.37" xlink:href="#Безымянный_градиент_25"/><linearGradient id="Безымянный_градиент_14-5" x1="164.25" y1="26.09" x2="163.74" y2="70.77" xlink:href="#Безымянный_градиент_25"/><linearGradient id="Безымянный_градиент_14-6" x1="312.53" y1="27.78" x2="312.02" y2="72.46" xlink:href="#Безымянный_градиент_25"/><linearGradient id="Безымянный_градиент_14-7" x1="344.69" y1="28.15" x2="344.18" y2="72.83" xlink:href="#Безымянный_градиент_25"/><linearGradient id="Безымянный_градиент_14-8" x1="377.91" y1="28.53" x2="377.4" y2="73.21" xlink:href="#Безымянный_градиент_25"/><linearGradient id="Безымянный_градиент_14-9" x1="413.88" y1="28.94" x2="413.37" y2="73.62" xlink:href="#Безымянный_градиент_25"/><linearGradient id="Безымянный_градиент_14-10" x1="449.87" y1="29.35" x2="449.36" y2="74.03" xlink:href="#Безымянный_градиент_25"/></defs><title>flashCardsLogoBarberOutlined modified</title><g id="Слой_6" data-name="Слой 6"><path d="M239.72,104.6h-.08c-26.2-1.65-37.56-20.21-37.21-37.88.37-18.17,13.3-36.84,37.29-37.39h.17c26.19,1.66,37.56,20.22,37.2,37.89-.37,18.17-13.29,36.84-37.28,37.39Zm0-71.28c-21.42.53-33,17.23-33.29,33.48-.31,15.73,9.88,32.27,33.37,33.8,21.42-.53,33-17.23,33.29-33.47C273.41,51.39,263.21,34.85,239.72,33.32Z" transform="translate(-11.75 -15.89)"/><path d="M239.79,99.37h-.09c-21.26-.66-31.17-16.94-31.38-31.78s9.5-31.71,31.32-33h.19c21.25.66,31.16,16.94,31.38,31.78s-9.5,31.71-31.33,33Zm0-60.81c-19.14,1.19-27.66,15.84-27.47,29s8.84,27.21,27.41,27.83c19.15-1.19,27.66-15.84,27.48-29C267,53.42,258.36,39.18,239.79,38.56Z" transform="translate(-11.75 -15.89)"/><path class="cls-1" d="M256.73,15.89c-5.8,4.11-47.35,61.43-23,42.58,1.71,1.66-11.81,17-13,19.75,24-18.77,5.21,3,.4,11.83-2.5,3.2-2.28,3.2.6.85,24.72-22.76-.17,15-3.07,23.87,18-15.08,31.36-34.33,36-45.29-.1,0-3.19,2.46-6.66,5-13,12.24,11.07-21,7.81-23.63C229.76,67.19,256.08,25.51,256.73,15.89Z" transform="translate(-11.75 -15.89)"/></g><g id="Слой_5" data-name="Слой 5"><path class="cls-2" d="M12.7,74.13C4,40.78,58.1,58.9,30,63.61c-13.45-9.72-9.35,18.16,0,6C58.4,77.05,13,83.81,12.7,74.13Z" transform="translate(-11.75 -15.89)"/><path class="cls-3" d="M63.77,74.61c-9.57-1.76-12,5.78-19.87,3.8,3-4.07,6.33-26.77,14.27-22.8,11.49-4.11,12,18.17,15.94,22.8C71.13,78.12,63.5,80.13,63.77,74.61Zm-2-5.6L59,61.25,56.23,69Z" transform="translate(-11.75 -15.89)"/><path class="cls-4" d="M93.23,71H89.42v7.4H80.3V55.61c13.41-1.24,38.59-.49,22.17,15.24l5.68,7.56C95.3,80.18,96.28,74.59,93.23,71Zm-3.81-5.8c13.15,1.36,10.37-4.68,0-3.4Z" transform="translate(-11.75 -15.89)"/><path class="cls-5" d="M142.15,61.33c3.62,24.83-12.55,15.27-26.81,17.08V55.61C121.14,56.8,141.79,51.7,142.15,61.33Zm-8.92,2.34c.46-2.43-7-1.61-8.77-1.76v10.2C134.89,73.35,133.09,70.57,133.23,63.67Z" transform="translate(-11.75 -15.89)"/><path class="cls-6" d="M150.34,74.09c-.94-.88,8.24-3.25,8.92-3.72.44,7.32,16.57-1.59,3-.6-7-.17-8.22,1.09-11.65-3.85-9.08-19.46,47-8.85,17.59-2.27,1.87-3.47-11.34-4.69-8.47.23,5.13,1.89,14.22-2.37,17.09,4.22C184.42,82.93,150.05,80.74,150.34,74.09Z" transform="translate(-11.75 -15.89)"/><path class="cls-7" d="M298.64,74.09c-.94-.88,8.24-3.25,8.92-3.72.44,7.32,16.57-1.59,3-.6-7-.17-8.21,1.09-11.64-3.85-9.09-19.46,47-8.85,17.58-2.27,1.87-3.47-11.33-4.69-8.46.23,5.13,1.89,14.22-2.37,17.08,4.22C332.72,82.93,298.35,80.74,298.64,74.09Z" transform="translate(-11.75 -15.89)"/><path class="cls-8" d="M339.78,62h-8.34v-6.4h25.8V62H348.9v16.4h-9.12Z" transform="translate(-11.75 -15.89)"/><path class="cls-9" d="M363.84,74.13c-4.52-23.49,12.68-21.39,26.43-15.92C399.58,88,364.2,79.59,363.84,74.13Zm16-2c4.95-4,1.77-13.58-6.53-9.67C371,69.18,372.51,73.41,379.82,72.09Z" transform="translate(-11.75 -15.89)"/><path class="cls-10" d="M426.85,55.61v22.8c-14,2.56-13.65-7.91-18.49-13v13H400V55.61c14-2.6,13.68,8.06,18.5,13.2V55.61Z" transform="translate(-11.75 -15.89)"/><path class="cls-11" d="M436.84,55.61H462v5.9H446v2.8h10.48v5.4H446v2.8H462v5.9h-25.2Z" transform="translate(-11.75 -15.89)"/></g></svg>