<?xml version="1.0" ?><!DOCTYPE svg  PUBLIC '-//W3C//DTD SVG 1.1//EN'  'http://www.w3.org/Graphics/SVG/1.1/DTD/svg11.dtd'><svg enable-background="new 0 0 128 128" height="128px" id="Layer_1" version="1.1" viewBox="0 0 128 128" width="128px" xml:space="preserve" xmlns="http://www.w3.org/2000/svg" xmlns:xlink="http://www.w3.org/1999/xlink"><g><circle cx="63.997" cy="31.783" fill="rgb(115, 165, 255)" r="11" stroke="rgb(115, 165, 255)" stroke-miterlimit="10" stroke-width="2"/></g><path d="M71.443,90.865V70.492v-8.484V49.882  c-0.563-0.101-1.146-0.172-1.756-0.172H58.387c-3.85,0-6.972,2.138-6.972,4.773c0,2.232,2.248,4.091,5.269,4.613  c0.193,1.042,0.322,2.114,0.322,3.231v28.645c0,5.271-2.258,9.87-5.629,12.42c0.376,1.221,1.459,2.123,2.788,2.123h19.642  c1.441,0,2.589-1.07,2.853-2.453C73.517,100.435,71.443,95.955,71.443,90.865z" fill="rgb(115, 165, 255)" stroke="rgb(115, 165, 255)" stroke-miterlimit="10" stroke-width="2"/></svg>