<svg xmlns="http://www.w3.org/2000/svg">
    <path id="arrow-ios-back" d="M13.83 19C13.6806 19.0005 13.533 18.9675 13.398 18.9035C13.263 18.8395 13.1441 18.746 13.05 18.63L8.22 12.63C8.07292 12.4511 7.99251 12.2266 7.99251 11.995C7.99251 11.7634 8.07292 11.5389 8.22 11.36L13.22 5.36C13.3897 5.15578 13.6336 5.02736 13.8981 5.00298C14.1625 4.9786 14.4258 5.06026 14.63 5.23C14.8342 5.39974 14.9626 5.64365 14.987 5.90808C15.0114 6.1725 14.9297 6.43578 14.76 6.64L10.29 12L14.61 17.36C14.7323 17.5068 14.81 17.6855 14.8338 17.8751C14.8577 18.0646 14.8268 18.257 14.7447 18.4296C14.6627 18.6021 14.5329 18.7475 14.3708 18.8486C14.2087 18.9497 14.021 19.0022 13.83 19Z"
          fill="black"/>
    <path id="arrow-ios-forward" d="M10 19C9.76635 19.0005 9.53991 18.9191 9.36 18.77C9.25874 18.6861 9.17504 18.583 9.11369 18.4666C9.05233 18.3503 9.01454 18.223 9.00246 18.092C8.99039 17.961 9.00427 17.8289 9.04331 17.7033C9.08236 17.5777 9.1458 17.4611 9.23 17.36L13.71 12L9.39 6.63C9.30693 6.52771 9.2449 6.41002 9.20747 6.28368C9.17004 6.15734 9.15794 6.02485 9.17188 5.89382C9.18582 5.76279 9.22552 5.63581 9.28869 5.52017C9.35187 5.40454 9.43727 5.30252 9.54 5.22C9.64346 5.12897 9.76463 5.0603 9.89589 5.01831C10.0272 4.97632 10.1657 4.96192 10.3028 4.976C10.4399 4.99009 10.5726 5.03236 10.6925 5.10016C10.8125 5.16796 10.9172 5.25983 11 5.37L15.83 11.37C15.9771 11.5489 16.0575 11.7734 16.0575 12.005C16.0575 12.2366 15.9771 12.4611 15.83 12.64L10.83 18.64C10.7297 18.761 10.6022 18.8567 10.458 18.9192C10.3138 18.9818 10.1569 19.0095 10 19Z"
          fill="black"/>
</svg>