<svg id="Слой_5" data-name="Слой 5" xmlns="http://www.w3.org/2000/svg" xmlns:xlink="http://www.w3.org/1999/xlink" viewBox="0 0 91.48 126.07"><defs><linearGradient id="Безымянный_градиент_3" y1="62.87" x2="91.48" y2="62.87" gradientUnits="userSpaceOnUse"><stop offset="0" stop-color="#ffd22e"/><stop offset="1" stop-color="#ffa617"/></linearGradient><linearGradient id="Безымянный_градиент_25" x1="29.05" y1="57.05" x2="38.3" y2="4.91" gradientTransform="matrix(1, -0.01, -0.01, -1, 12.64, 94.43)" gradientUnits="userSpaceOnUse"><stop offset="0" stop-color="#6a45ff"/><stop offset="0.28" stop-color="#7d40ff"/><stop offset="0.73" stop-color="#9839ff"/><stop offset="1" stop-color="#a236ff"/></linearGradient><linearGradient id="Безымянный_градиент_2" x1="6.06" y1="55.39" x2="45.3" y2="19.83" gradientTransform="matrix(1, -0.01, -0.01, -1, 12.64, 94.43)" gradientUnits="userSpaceOnUse"><stop offset="0" stop-color="#3a00e7"/><stop offset="1" stop-color="#8d00b9"/></linearGradient><linearGradient id="Безымянный_градиент_24" x1="41.73" y1="114.87" x2="24.82" y2="58.75" gradientTransform="translate(11.29 -24.05) rotate(-0.65)" gradientUnits="userSpaceOnUse"><stop offset="0" stop-color="#7200ff"/><stop offset="0.07" stop-color="#7605ff"/><stop offset="0.68" stop-color="#9628ff"/><stop offset="1" stop-color="#a236ff"/></linearGradient></defs><title>appLogoGolden</title><rect y="6.02" width="91.48" height="113.69" rx="13.02" fill="url(#Безымянный_градиент_3)"/><path d="M52.92,3.49,20.1,70.08a2.44,2.44,0,0,0,1.09,3.27,2.42,2.42,0,0,0,1.12.25l20.75-.23-5.35,48.74a1,1,0,0,0,.9,1.12,1,1,0,0,0,1-.49L72.4,59a2.15,2.15,0,0,0-.91-2.9,2.05,2.05,0,0,0-1-.25l-20.67,0L54.71,4.06a.94.94,0,1,0-1.79-.57Z" fill="url(#Безымянный_градиент_25)"/><path d="M52.93,4.41,20.11,71a2.44,2.44,0,0,0,1.09,3.27,2.42,2.42,0,0,0,1.12.25l20.75-.23L37.72,123a1,1,0,0,0,.9,1.12,1,1,0,0,0,1-.49L72.41,59.89A2.15,2.15,0,0,0,71.5,57a2.05,2.05,0,0,0-1-.25l-20.67,0L54.72,5a.94.94,0,1,0-1.79-.57Z" fill="url(#Безымянный_градиент_2)"/><path d="M38.76,126.07l-.46,0a3.86,3.86,0,0,1-3.41-4.25l5-45.57-17.56.2h0a5.26,5.26,0,0,1-4.77-7.61L50.31,2.37A3.77,3.77,0,0,1,55,.18,3.71,3.71,0,0,1,57.16,2a3.77,3.77,0,0,1,.35,2.49L52.94,53,70.5,53a5,5,0,0,1,2.31.57,5,5,0,0,1,2.1,6.72L42,124.2A3.88,3.88,0,0,1,38.76,126.07ZM43,70.53l3.19,0-4.63,42.18,27.79-54-22.66,0L50.94,13.9l-28,56.86Zm-20.4.8Zm-.36-.56Zm47.61-13.1h0Z" fill="url(#Безымянный_градиент_24)"/></svg>