<svg id="Слой_5" data-name="Слой 5" xmlns="http://www.w3.org/2000/svg" xmlns:xlink="http://www.w3.org/1999/xlink" viewBox="0 0 136.04 107.21"><defs><linearGradient id="Безымянный_градиент_36" x1="49.14" y1="44.8" x2="122.45" y2="44.8" gradientTransform="translate(134.75 -32.19) rotate(90)" gradientUnits="userSpaceOnUse"><stop offset="0" stop-color="#ffd22e"/><stop offset="0.9" stop-color="#b27010"/></linearGradient><linearGradient id="Безымянный_градиент_35" x1="31.72" y1="50.79" x2="105.02" y2="50.79" gradientTransform="translate(119.13 -17.57) rotate(90)" gradientUnits="userSpaceOnUse"><stop offset="0" stop-color="#ffd22e"/><stop offset="0.92" stop-color="#d6861d"/></linearGradient><linearGradient id="Безымянный_градиент_5" x1="14.01" y1="50.74" x2="87.32" y2="50.74" gradientTransform="translate(-3.18 2.86)" gradientUnits="userSpaceOnUse"><stop offset="0" stop-color="#ffd22e"/><stop offset="1" stop-color="#ffa617"/></linearGradient><linearGradient id="Безымянный_градиент_25" x1="43.7" y1="102.86" x2="49.49" y2="70.2" gradientTransform="matrix(0.96, -0.26, -0.26, -0.96, 25.65, 149.43)" gradientUnits="userSpaceOnUse"><stop offset="0" stop-color="#6a45ff"/><stop offset="0.28" stop-color="#7d40ff"/><stop offset="0.73" stop-color="#9839ff"/><stop offset="1" stop-color="#a236ff"/></linearGradient><linearGradient id="Безымянный_градиент_4" x1="29.3" y1="101.82" x2="53.88" y2="79.54" gradientTransform="matrix(0.96, -0.26, -0.26, -0.96, 25.65, 149.43)" gradientUnits="userSpaceOnUse"><stop offset="0" stop-color="#3a00e7"/><stop offset="1" stop-color="#8d00b9"/></linearGradient><linearGradient id="Безымянный_градиент_24" x1="51.64" y1="61.62" x2="41.05" y2="26.47" gradientTransform="translate(-8.92 23.07) rotate(-15.3)" gradientUnits="userSpaceOnUse"><stop offset="0" stop-color="#7200ff"/><stop offset="0.07" stop-color="#7605ff"/><stop offset="0.68" stop-color="#9628ff"/><stop offset="1" stop-color="#a236ff"/></linearGradient></defs><title>cardMemoSmallLogoCards</title><rect x="44.4" y="16.95" width="91.11" height="73.3" rx="10.43" transform="translate(17.49 129.19) rotate(-77)" style="stroke:#ffa300;stroke-miterlimit:10;stroke-width:3px;fill:url(#Безымянный_градиент_36)"/><path d="M107.63,106.36a12.7,12.7,0,0,1-2.87-.33L53.67,94.23A12.64,12.64,0,0,1,44.2,79.08L60,10.64A12.64,12.64,0,0,1,75.15,1.18L126.25,13a12.64,12.64,0,0,1,9.46,15.15l-15.8,68.45a12.63,12.63,0,0,1-12.28,9.79ZM72.31,5.25a8.25,8.25,0,0,0-8,6.38L48.49,80.07A8.24,8.24,0,0,0,54.66,90l51.09,11.8a8.23,8.23,0,0,0,9.87-6.17l15.81-68.45a8.24,8.24,0,0,0-6.17-9.87L74.16,5.46A8.4,8.4,0,0,0,72.31,5.25Z"/><rect x="22.79" y="14.14" width="91.11" height="73.3" rx="10.43" transform="translate(17.34 118.98) rotate(-89.83)" style="stroke:#ffa300;stroke-miterlimit:10;stroke-width:3px;fill:url(#Безымянный_градиент_35)"/><path d="M94.45,98.63h0L42,98.47A12.63,12.63,0,0,1,29.38,85.8l.22-70.24A12.63,12.63,0,0,1,42.27,3l52.43.16a12.65,12.65,0,0,1,12.6,12.67L107.08,86A12.64,12.64,0,0,1,94.45,98.63ZM42.23,7.36A8.25,8.25,0,0,0,34,15.57l-.21,70.24A8.23,8.23,0,0,0,42,94.07l52.44.16h0A8.24,8.24,0,0,0,102.68,86l.22-70.24a8.25,8.25,0,0,0-8.21-8.26L42.25,7.36Z"/><rect x="10.84" y="8.05" width="73.3" height="91.11" rx="10.43" transform="translate(-12.89 15.1) rotate(-15.93)" style="stroke:#ffa300;stroke-miterlimit:10;stroke-width:3px;fill:url(#Безымянный_градиент_5)"/><path d="M31.92,107.21A12.66,12.66,0,0,1,19.77,98L.49,30.5A12.65,12.65,0,0,1,9.17,14.88h0L59.59.49A12.64,12.64,0,0,1,75.2,9.16L94.49,76.71a12.64,12.64,0,0,1-8.68,15.61l-50.42,14.4A12.64,12.64,0,0,1,31.92,107.21ZM63.05,4.4a8,8,0,0,0-2.25.32L10.37,19.11A8.24,8.24,0,0,0,4.72,29.29L24,96.83a8.25,8.25,0,0,0,10.18,5.66L84.6,88.09a8.24,8.24,0,0,0,5.66-10.17L71,10.37A8.24,8.24,0,0,0,63.05,4.4Z"/><path d="M42.54,16.47,33.2,62a1.53,1.53,0,0,0,1.18,1.8,1.46,1.46,0,0,0,.72,0l12.54-3.43,4.47,30.39a.65.65,0,0,0,.73.53.63.63,0,0,0,.52-.45L63.14,47a1.35,1.35,0,0,0-1-1.61,1.43,1.43,0,0,0-.65,0L49,48.65,43.72,16.53a.59.59,0,0,0-.56-.62A.59.59,0,0,0,42.54,16.47Z" style="fill:url(#Безымянный_градиент_25)"/><path d="M42.7,17,33.36,62.57a1.52,1.52,0,0,0,1.18,1.81,1.55,1.55,0,0,0,.71,0l12.54-3.43,4.48,30.38a.64.64,0,0,0,1.24.09l9.78-43.84a1.35,1.35,0,0,0-1-1.62,1.38,1.38,0,0,0-.64,0L49.11,49.21,43.87,17.08A.59.59,0,0,0,42.7,17Z" style="fill:url(#Безымянный_градиент_4)"/><path d="M53.38,93l-.28.06a2.42,2.42,0,0,1-1.79-.45,2.39,2.39,0,0,1-1-1.59l-4.18-28.4-10.61,2.9h0a3.34,3.34,0,0,1-1.54,0,3.29,3.29,0,0,1-2.08-1.42,3.25,3.25,0,0,1-.47-2.48L40.79,16.2a2.36,2.36,0,0,1,4.7.17L50.4,46.45,61,43.68a3.11,3.11,0,0,1,3.82,3.72l-9.8,43.94A2.42,2.42,0,0,1,53.38,93ZM47.17,58.66l1.93-.53L53,84.42l8.29-37.13L47.52,50.86,43,23.09,35,62ZM34.94,62.37h0Zm-.31-.28ZM61.41,46.61h0Z" style="fill:url(#Безымянный_градиент_24)"/></svg>