<svg id="Слой_5" data-name="Слой 5" xmlns="http://www.w3.org/2000/svg" xmlns:xlink="http://www.w3.org/1999/xlink" viewBox="0 0 560.85 113.49"><defs><linearGradient id="Безымянный_градиент_2" x1="255.45" y1="45.42" x2="328.75" y2="45.42" gradientTransform="translate(341.54 -237.85) rotate(90)" gradientUnits="userSpaceOnUse"><stop offset="0" stop-color="#3a00e7"/><stop offset="1" stop-color="#8d00b9"/></linearGradient><linearGradient id="Безымянный_градиент_2-2" x1="237.88" y1="51.43" x2="311.19" y2="51.43" gradientTransform="translate(325.93 -223.1) rotate(90)" xlink:href="#Безымянный_градиент_2"/><linearGradient id="Безымянный_градиент_2-3" x1="220" y1="51.36" x2="293.3" y2="51.36" gradientTransform="translate(-3 2.88)" xlink:href="#Безымянный_градиент_2"/><linearGradient id="Безымянный_градиент_3" x1="248.24" y1="39.98" x2="271.11" y2="60.7" gradientTransform="translate(-5.95 85.11) rotate(-17.22)" gradientUnits="userSpaceOnUse"><stop offset="0" stop-color="#ffd22e"/><stop offset="1" stop-color="#ffa617"/></linearGradient><linearGradient id="Безымянный_градиент_3-2" x1="95.16" y1="10.3" x2="114.44" y2="10.3" gradientTransform="matrix(1, 0, 0, 1, 0, 0)" xlink:href="#Безымянный_градиент_3"/><linearGradient id="Безымянный_градиент_3-3" x1="88.52" y1="100.44" x2="107.8" y2="100.44" gradientTransform="matrix(1, 0, 0, 1, 0, 0)" xlink:href="#Безымянный_градиент_3"/><linearGradient id="Безымянный_градиент_3-4" x1="400.16" y1="96.12" x2="419.43" y2="96.12" gradientTransform="matrix(1, 0, 0, 1, 0, 0)" xlink:href="#Безымянный_градиент_3"/><linearGradient id="Безымянный_градиент_5" x1="518.56" y1="-89.27" x2="545.69" y2="-89.27" gradientTransform="matrix(1, 0, 0, -1, 5.43, -74.48)" xlink:href="#Безымянный_градиент_3"/></defs><title>cardMemoLogo</title><path d="M1.65,70C-12.72,2.91,72.82,37.68,28.82,48.36c-18.84-19.56-17,36.34,0,12.33C73.42,74.46,3.11,90.77,1.65,70Z" transform="translate(0 0)"/><path d="M77.8,71C59.42,67.5,61.9,82.61,46.56,78.79c19.24-81.59,37-46.86,47.5,0C87.33,78.44,77.65,81.75,77.8,71ZM74.65,59.46l-4.37-16-4.34,16Z" transform="translate(0 0)"/><path d="M120,63.57h-6V78.79H99.66V31.91c28.08-2.44,58.12-.18,34.85,31.33l8.93,15.55C122.83,82.49,124.92,70.7,120,63.57Zm-6-11.92c16.22,3.45,19.58-8.43,0-7Z" transform="translate(0 0)"/><path d="M192.76,43.67c6,47-15.4,32.78-42.14,35.12V31.91C164.71,34.23,190.74,24.23,192.76,43.67Zm-14,4.81c.61-3.64-8.4-4-13.78-3.62v21c16.28,3.61,13.39-5.73,13.76-17.38Z" transform="translate(0 0)"/><path d="M399.92,31.39V78.23H386.86v-28l-9.59,18.59-9.59-18.59v28H354.59V31.39c18.83-3.73,18.2,7.52,22.65,15.17C383.59,26.23,390.84,32.09,399.92,31.39Z" transform="translate(0 0)"/><path d="M411.49,31.39h39.64V43.52H425.84v5.76h16.48v11.1H425.84v5.76h25.29V78.23H411.49Z" transform="translate(0 0)"/><path d="M505.79,31.39V78.23H492.74v-28l-9.59,18.59L473.59,50.3V78.23h-13V31.39c18.83-3.73,18.19,7.52,22.65,15.17C489.46,26.23,496.72,32.09,505.79,31.39Z" transform="translate(0 0)"/><path d="M516.43,69.47c-6.51-44.41,13.87-44.41,41.16-33.77C574.85,94.73,518,82.79,516.43,69.47Zm25.16-4.24c6.7-3.36,3.58-33.37-11.11-17.35C531,57.6,526.22,66.8,541.59,65.23Z" transform="translate(0 0)"/><rect x="250.57" y="17.59" width="91.11" height="73.3" rx="10.43" transform="translate(176.64 330.57) rotate(-77)" fill="url(#Безымянный_градиент_2)"/><path d="M313.79,107a12.84,12.84,0,0,1-2.87-.33l-51.09-11.8a12.65,12.65,0,0,1-9.47-15.15l15.81-68.44a12.64,12.64,0,0,1,15.15-9.46l51.09,11.8a12.65,12.65,0,0,1,9.47,15.15L326.07,97.21A12.63,12.63,0,0,1,313.79,107ZM278.47,5.89a8.25,8.25,0,0,0-8,6.38l-15.8,68.45a8.24,8.24,0,0,0,6.17,9.87l51.09,11.8a8.24,8.24,0,0,0,9.88-6.17l15.8-68.44a8.25,8.25,0,0,0-6.17-9.88L280.33,6.1A8.42,8.42,0,0,0,278.47,5.89Z" transform="translate(0 0)"/><rect x="228.95" y="14.79" width="91.11" height="73.3" rx="10.43" transform="translate(222.23 325.78) rotate(-89.83)" fill="url(#Безымянный_градиент_2-2)"/><path d="M300.61,99.27h0l-52.44-.16a12.63,12.63,0,0,1-12.6-12.67l.22-70.24A12.62,12.62,0,0,1,248.43,3.61l52.44.16a12.64,12.64,0,0,1,12.59,12.67l-.21,70.24A12.66,12.66,0,0,1,300.61,99.27ZM248.39,8a8.23,8.23,0,0,0-8.23,8.2l-.22,70.25a8.25,8.25,0,0,0,8.21,8.25l52.44.16h0a8.25,8.25,0,0,0,8.24-8.2l.21-70.25a8.24,8.24,0,0,0-8.21-8.25L248.41,8Z" transform="translate(0 0)"/><rect x="217" y="8.69" width="73.3" height="91.11" rx="10.43" transform="translate(-5.15 71.72) rotate(-15.93)" fill="url(#Безымянный_градиент_2-3)"/><path d="M238.08,107.85a12.66,12.66,0,0,1-12.15-9.17L206.65,31.14a12.64,12.64,0,0,1,8.68-15.61h0l50.42-14.4a12.66,12.66,0,0,1,15.62,8.68l19.28,67.54A12.66,12.66,0,0,1,292,93l-50.42,14.39A12.64,12.64,0,0,1,238.08,107.85ZM269.22,5a8,8,0,0,0-2.26.32l-50.43,14.4a8.22,8.22,0,0,0-5.65,10.17l19.28,67.55a8.25,8.25,0,0,0,10.18,5.65l50.43-14.39a8.25,8.25,0,0,0,5.65-10.18L277.14,11A8.26,8.26,0,0,0,269.22,5Z" transform="translate(0 0)"/><path d="M247.2,20.21l-7.27,42.65a1.42,1.42,0,0,0,1.83,1.6l11.53-3.61L258.41,89a.59.59,0,0,0,1.16,0L267.3,48a1.26,1.26,0,0,0-1.59-1.44l-11.54,3.43-5.9-29.7A.54.54,0,0,0,247.2,20.21Z" transform="translate(0 0)" stroke="#ffa300" stroke-miterlimit="10" stroke-width="3" fill="url(#Безымянный_градиент_3)"/><circle cx="34.46" cy="98.97" r="6.52"/><circle cx="531.66" cy="98.97" r="6.52"/><circle cx="193.77" cy="97.07" r="6.34" fill="#4917aa"/><circle cx="342.99" cy="96.12" r="6.34" fill="#4917aa"/><circle cx="369" cy="12.82" r="6.34" fill="#4917aa"/><circle cx="480.42" cy="97.62" r="2.82"/><circle cx="203.4" cy="79.88" r="2.82"/><circle cx="319.83" cy="2.84" r="2.82"/><circle cx="258.71" cy="110.67" r="2.82" fill="#4917aa"/><circle cx="342.99" cy="74.24" r="2.82"/><circle cx="210.56" cy="9.85" r="2.82" fill="#4917aa"/><circle cx="171.88" cy="15.64" r="2.82"/><circle cx="486.14" cy="7.03" r="2.82" fill="#4917aa"/><path d="M104.8,10.3C77.45-1.92,49.72-4.47,20.44,9.23c8.2-1.47,15.58-4.08,22-3.57-11,7.23-12.59,9.19-16.08,14C49.29,1.32,72.78,2.42,104.8,10.3Z" transform="translate(0 0)"/><polygon points="114.44 10.3 107.37 12.87 104.8 19.94 102.22 12.87 95.16 10.3 102.22 7.73 104.8 0.66 107.37 7.73 114.44 10.3" fill="url(#Безымянный_градиент_3-2)"/><polygon points="107.8 100.44 100.73 103.02 98.16 110.08 95.59 103.02 88.52 100.44 95.59 97.87 98.16 90.81 100.73 97.87 107.8 100.44" fill="url(#Безымянный_градиент_3-3)"/><polygon points="419.43 96.12 412.37 98.7 409.79 105.76 407.22 98.7 400.15 96.12 407.22 93.55 409.79 86.49 412.37 93.55 419.43 96.12" fill="url(#Безымянный_градиент_3-4)"/><polygon points="442.62 13.17 435.55 15.74 432.98 22.81 430.41 15.74 423.34 13.17 430.41 10.6 432.98 3.53 435.55 10.6 442.62 13.17" fill="#fff200"/><path d="M524.05,12.1l6,13.77a35.62,35.62,0,0,0,15.73,0l5.38-13.75a.26.26,0,0,0-.16-.32.22.22,0,0,0-.22,0l-6.93,4.82a1.1,1.1,0,0,1-1.52-.27,1,1,0,0,1-.15-.31L538.07,3a.25.25,0,0,0-.32-.17h0a.25.25,0,0,0-.16.17L533.7,16.14a1.1,1.1,0,0,1-1.36.73.81.81,0,0,1-.3-.13l-7.65-5a.24.24,0,0,0-.35.05.24.24,0,0,0,0,.28Z" transform="translate(0 0)" stroke="#ffa300" stroke-miterlimit="10" stroke-width="3" fill="url(#Безымянный_градиент_5)"/></svg>